 http://desibbrg.org/images/66952052392581364616.gif 
http://desibbrg.org/images/03563861883323665636.png 
http://desibbrg.org/images/23512642606218020988.png 
http://desibbrg.org/images/22626862541232874091.png 
http://desibbrg.org/images/10467606163976587540.png

Media Info - 
Format : AVI
Format/Info : Audio Video Interleave
File size : 1.45 GiB
Duration : 2h 15mn
Overall bit rate : 1 537 Kbps
Writing application : VirtualDubMod 1.5.10.2 (build 2542/release)
Writing library : VirtualDubMod build 2542/release

Video
ID : 0
Format : MPEG-4 Visual
Format profile : Advanced Simple@L5
Format settings, BVOP : 2
Format settings, QPel : Yes
Format settings, GMC : No warppoints
Format settings, Matrix : Custom
Codec ID : XVID
Codec ID/Hint : XviD
Duration : 2h 15mn
Bit rate : 1 080 Kbps
Width : 720 pixels
Height : 352 pixels
Display aspect ratio : 2.045
Frame rate : 23.976 fps
Color space : YUV
Chroma subsampling : 4:2:0
Bit depth : 8 bits
Scan type : Progressive
Compression mode : Lossy
Bits/(Pixel*Frame) : 0.178
Stream size : 1.02 GiB (70%)
Writing library : XviD 1.2.1 (UTC 2008-12-04)

Audio
ID : 1
Format : AC-3
Format/Info : Audio Coding 3
Mode extension : CM (complete main)
Codec ID : 2000
Duration : 2h 15mn
Bit rate mode : Constant
Bit rate : 448 Kbps
Channel(s) : 6 channels
Channel positions : Front: L C R, Side: L R, LFE
Sampling rate : 48.0 KHz
Bit depth : 16 bits
Compression mode : Lossy
Stream size : 433 MiB (29%)
Alignment : Split accross interleaves
Interleave, duration : 42 ms (1.00 video frame)
Interleave, preload duration : 500 ms

Ripper : 

Seeding 24x7... Extreme Seeding...


Enjoy!
